<?xml version="1.0" encoding="UTF-8"?>
<svg id="Layer_1" xmlns="http://www.w3.org/2000/svg" version="1.1" viewBox="0 0 38.41 47.59">
  <!-- Generator: Adobe Illustrator 29.2.1, SVG Export Plug-In . SVG Version: 2.1.0 Build 116)  -->
  <polygon points="26.07 42.12 27.84 45.57 32.25 45.57 31.37 42.12 26.07 42.12"/>
  <polygon points="7.18 42.12 6.3 45.57 11.13 45.57 12.89 42.12 7.18 42.12"/>
  <path d="M27.28,29.17l-4.58-3.24c.21-.41.24-1.14.24-1.5,0-.96-.37-1.86-1.05-2.55l2.24-3.45c.11-.17.15-.36.1-.55-.05-.2-.17-.36-.36-.47-.35-.2-.85-.09-1.06.24l-2.19,3.37c-.43-.17-.88-.26-1.34-.26-2.02,0-3.66,1.64-3.66,3.66s1.64,3.66,3.66,3.66c1.2,0,2.1-.3,2.85-1.23l4.63,3.26c.08.06.17.09.26.09.18,0,.34-.11.42-.3.11-.26.04-.59-.16-.75Z"/>
  <path d="M33.08,6.92H5.33c-1.83,0-3.31,1.48-3.31,3.31v27.75c0,1.83,1.48,3.31,3.31,3.31h27.75c1.83,0,3.31-1.48,3.31-3.31V10.23c0-1.83-1.48-3.31-3.31-3.31ZM20.24,35.55v-2.26h-2.07v2.26c-5.5-.49-9.88-4.85-10.4-10.34h2.33v-2.07h-2.33c.46-5.55,4.87-9.98,10.41-10.48v2.4h2.07v-2.4c5.55.5,9.95,4.92,10.41,10.48h-2.33v2.07h2.33c-.52,5.49-4.9,9.85-10.4,10.34Z"/>
  <path d="M24.43,5.88c-.68-2.24-2.76-3.86-5.22-3.86s-4.54,1.63-5.22,3.86h10.44Z"/>
</svg>