<?xml version="1.0" encoding="UTF-8"?>
<svg id="Layer_1" xmlns="http://www.w3.org/2000/svg" version="1.1" viewBox="0 0 46.04 36.22">
  <!-- Generator: Adobe Illustrator 29.2.1, SVG Export Plug-In . SVG Version: 2.1.0 Build 116)  -->
  <path d="M39.39,17.97c.11,2.25-.47,4.4-1.57,6.31l1.77.66c1.23-2.15,1.88-4.56,1.75-7.07-.11-2.33-.86-4.5-2.11-6.4l-1.7.84c1.1,1.69,1.76,3.61,1.86,5.67Z"/>
  <path d="M6.95,17.97c.09-2.12.79-4.09,1.94-5.82l-1.7-.83c-1.3,1.95-2.08,4.17-2.19,6.56-.12,2.58.57,5.04,1.87,7.23l1.77-.67c-1.17-1.95-1.79-4.16-1.68-6.46Z"/>
  <path d="M42.69,17.69c.13,2.74-.57,5.37-1.93,7.7l1.8.68c1.49-2.57,2.27-5.46,2.12-8.48-.13-2.75-1.02-5.32-2.49-7.58l-1.73.86c1.31,2.04,2.1,4.35,2.23,6.82Z"/>
  <path d="M3.35,17.68c.12-2.57.96-4.98,2.37-7.08l-1.73-.85c-1.56,2.33-2.5,4.98-2.63,7.84-.14,3.12.7,6.1,2.3,8.73l1.8-.69c-1.46-2.4-2.24-5.11-2.11-7.95Z"/>
  <path d="M23.43,35.06c1.22-.11,2.12-1.19,2.01-2.41-.03-.33-.13-.64-.29-.91-1.17-.08-2.46-.1-3.81-.06-.24.39-.37.87-.32,1.37.11,1.22,1.19,2.12,2.41,2.01Z"/>
  <path d="M34.34,23.67c-.36-1.44-.72-3.11-1.07-5.09-1.04-6.02-3.12-11.32-7.82-12.52.58-.53.95-1.29.96-2.13.01-1.62-1.29-2.95-2.92-2.97-1.63-.01-2.96,1.29-2.97,2.92,0,.84.34,1.6.91,2.15-4.78,1.08-7.2,6.26-8.23,12.38-.34,2-.65,3.69-.97,5.15-.78,3.59-1.56,5.75-2.74,7.49.08,0,27.41.25,27.49.25-.83-1.99-1.75-4.12-2.64-7.62Z"/>
</svg>