<?xml version="1.0" encoding="UTF-8"?>
<svg id="Layer_1" xmlns="http://www.w3.org/2000/svg" version="1.1" viewBox="0 0 50.8 43.69">
  <!-- Generator: Adobe Illustrator 29.2.1, SVG Export Plug-In . SVG Version: 2.1.0 Build 116)  -->
  <path d="M44.38,9.57l-7.92,1.48L23.44,2.14c-.73-.5-1.62-.68-2.48-.52-.87.16-1.62.65-2.12,1.38l-8.91,13.02-8.11,1.52,4.6,24.6,42.57-7.96-4.6-24.6ZM20.26,3.97c.24-.35.61-.59,1.02-.67.42-.08.85.01,1.2.25l11.6,7.95-21.77,4.07,7.95-11.6ZM8.86,38.95l-3.66-19.55,36.58-6.84,3.66,19.55-36.58,6.84Z"/>
  <g>
    <path d="M21.89,23.57c-.28.05-.51.12-.66.16l.48,2.56c.16,0,.35-.03.56-.07.54-.1.95-.31,1.19-.6.23-.28.31-.65.23-1.08-.15-.83-.79-1.16-1.79-.97Z"/>
    <path d="M15.47,24.76c-.13,0-.26.01-.4.04-.7.13-1.2.53-1.49,1.18-.27.6-.34,1.39-.18,2.2.23,1.2,1.06,2.5,2.36,2.5.12,0,.25-.01.38-.04,1.54-.29,1.95-1.9,1.68-3.37-.23-1.25-1.05-2.51-2.35-2.51Z"/>
    <path d="M40.88,13.87L6.51,20.3l3.24,17.34,34.37-6.43-3.24-17.34ZM18.9,30.37c-.56.86-1.45,1.45-2.53,1.65-.26.05-.52.07-.76.07-1.9,0-3.4-1.41-3.81-3.59-.48-2.57.78-4.66,3.06-5.08.26-.05.52-.07.77-.07,1.9,0,3.39,1.4,3.79,3.58.25,1.33.07,2.52-.53,3.45ZM24.89,26.17c-.45.71-1.3,1.21-2.4,1.42-.17.03-.35.06-.54.08l.57,3.07-1.56.29-1.53-8.17.22-.08c.56-.22,1.21-.4,1.95-.54,1.04-.19,1.89-.1,2.5.27.59.34.99.94,1.13,1.68.14.77.03,1.44-.35,1.99ZM27.1,29.88l-1.56-8.33,4.76-.89.26,1.39-3.19.6.36,1.9,3.01-.56.26,1.38-3.01.56.42,2.25,3.37-.63.26,1.39-4.93.92ZM37.73,27.89s-4.18-4.56-4.52-4.98c.13.61,1.07,5.62,1.07,5.62l-1.5.28-1.56-8.32,1.54-.29s4.1,4.46,4.41,4.83c-.14-.62-1.06-5.46-1.06-5.46l1.5-.28,1.56,8.33-1.44.27Z"/>
  </g>
</svg>